<svg width="24" height="24" viewBox="0 0 24 24" fill="none" xmlns="http://www.w3.org/2000/svg">
<path fill-rule="evenodd" clip-rule="evenodd" d="M19.0722 4.92864C18.6816 4.53811 18.0485 4.53811 17.6579 4.92864L12.0004 10.5862L6.34285 4.92864C5.95232 4.53811 5.31916 4.53811 4.92864 4.92864C4.53811 5.31916 4.53811 5.95233 4.92864 6.34285L10.5862 12.0004L4.93002 17.6566C4.53949 18.0471 4.53949 18.6802 4.93002 19.0708C5.32054 19.4613 5.9537 19.4613 6.34423 19.0708L12.0004 13.4146L17.6566 19.0708C18.0471 19.4613 18.6802 19.4613 19.0708 19.0708C19.4613 18.6802 19.4613 18.0471 19.0708 17.6566L13.4146 12.0004L19.0722 6.34285C19.4627 5.95232 19.4627 5.31916 19.0722 4.92864Z" fill="#7E7E7E"/>
</svg>
