<svg width="148" height="25" viewBox="0 0 148 25" fill="none" xmlns="http://www.w3.org/2000/svg">
<path d="M119.863 5.70703H118.319V18.9775H119.863V5.70703Z" fill="#42B6E6"/>
<path d="M110.323 7.40341L109.736 8.27022V5.69043H108.186V18.9609H109.736V11.8406C109.736 10.0038 110.445 8.48175 111.686 7.66654C112.926 6.85132 114.339 6.81005 115.899 7.42404L116.294 5.77813C113.843 4.89068 111.63 5.48921 110.323 7.40341Z" fill="#42B6E6"/>
<path d="M119.095 0C118.862 0 118.635 0.0702045 118.442 0.201735C118.249 0.333266 118.098 0.520207 118.009 0.738934C117.92 0.957661 117.897 1.19835 117.942 1.43055C117.988 1.66275 118.1 1.87603 118.264 2.04344C118.428 2.21085 118.638 2.32486 118.866 2.37105C119.094 2.41724 119.33 2.39353 119.544 2.30293C119.759 2.21233 119.943 2.0589 120.072 1.86205C120.201 1.6652 120.27 1.43377 120.27 1.19703C120.27 0.879556 120.146 0.575081 119.926 0.350596C119.705 0.12611 119.406 0 119.095 0Z" fill="#42B6E6"/>
<path d="M129.259 5.39149C128.361 5.37581 127.472 5.57379 126.662 5.96969C125.852 6.36559 125.144 6.94848 124.595 7.67203L124.012 8.46145V5.70623H122.462V24.6625H124.012V16.2834L124.595 17.0676C125.143 17.7927 125.851 18.3771 126.661 18.7739C127.471 19.1708 128.36 19.3692 129.259 19.3533C133.128 19.3533 135.939 16.4175 135.939 12.3724C135.939 8.32729 133.108 5.39149 129.259 5.39149ZM129.102 17.9293C126.256 17.9293 124.113 15.5404 124.113 12.3724C124.113 9.20442 126.256 6.8207 129.102 6.8207C132.191 6.8207 134.435 9.15798 134.435 12.3724C134.435 15.5868 132.221 17.9293 129.082 17.9293H129.102Z" fill="#42B6E6"/>
<path d="M142.508 11.5785C140.841 11.2793 138.537 10.9232 138.486 9.1174C138.431 7.39926 140.416 6.60469 142.477 6.63049C143.224 6.57822 143.974 6.67714 144.683 6.92155C145.393 7.16596 146.047 7.55102 146.61 8.05452L147.41 7.17741C146.06 5.94339 144.289 5.297 142.477 5.3767C139.798 5.3767 137.195 6.49633 137.225 9.14835C137.256 11.8004 139.798 12.3421 142.371 12.7601C144.544 13.1109 146.741 13.4979 146.686 15.4379C146.61 17.5636 144.154 18.0177 142.558 18.0177C140.791 18.0177 138.806 17.3366 137.707 15.7217L136.739 16.5988C137.894 18.3995 140.198 19.3024 142.533 19.3024C144.868 19.3024 147.896 18.5233 147.997 15.5359C148.109 12.3989 144.868 11.9861 142.508 11.5785Z" fill="#42B6E6"/>
<path d="M102.995 17.6713C101.121 17.6713 100.002 16.402 100.002 14.2763V7.17154H105.735V5.71654H100.002V1.2793H98.4825V5.71654H95.4438V7.17154H98.4825V14.6787C98.4825 17.5371 100.002 19.1108 102.813 19.1108C104.068 19.0525 105.288 18.669 106.358 17.9963L105.689 16.8767C104.872 17.3713 103.945 17.6449 102.995 17.6713Z" fill="#42B6E6"/>
<path d="M11.182 14.8383H10.8529C10.2836 15.6123 9.48962 16.1842 8.58354 16.4729C7.67745 16.7616 6.70517 16.7524 5.80447 16.4468C4.90376 16.1411 4.12032 15.5544 3.56514 14.7698C3.00996 13.9853 2.7112 13.0426 2.7112 12.0754C2.7112 11.1082 3.00996 10.1655 3.56514 9.38094C4.12032 8.59637 4.90376 8.00968 5.80447 7.70402C6.70517 7.39835 7.67745 7.38922 8.58354 7.67789C9.48962 7.96657 10.2836 8.53843 10.8529 9.31243H11.1719C11.4618 8.45253 11.8859 7.64588 12.4279 6.92354C11.7495 6.21997 10.9411 5.66031 10.0493 5.27685C9.15741 4.89339 8.19982 4.69375 7.23181 4.68945C6.03596 4.69288 4.8595 4.99754 3.80718 5.57629C2.75487 6.15503 1.85936 6.98992 1.20039 8.00659C0.541432 9.02326 0.139463 10.1902 0.0302876 11.4034C-0.0788881 12.6167 0.108118 13.8386 0.574647 14.9604C1.04118 16.0822 1.77275 17.069 2.70424 17.833C3.63572 18.5971 4.7382 19.1146 5.9135 19.3395C7.08881 19.5644 8.30047 19.4897 9.44058 19.1221C10.5807 18.7544 11.6139 18.1053 12.4481 17.2324C11.9048 16.5074 11.4775 15.6994 11.182 14.8383Z" fill="#42B6E6"/>
<path d="M22.6928 5.55638C21.3049 4.88569 19.7408 4.69233 18.2358 5.00539C16.7307 5.31845 15.3662 6.121 14.3475 7.29228C13.3288 8.46356 12.711 9.94022 12.5871 11.5001C12.4632 13.0599 12.8398 14.6186 13.6604 15.9415C14.4809 17.2645 15.701 18.2801 17.137 18.8357C18.5731 19.3913 20.1473 19.4567 21.623 19.0221C23.0987 18.5876 24.3959 17.6765 25.3195 16.426C26.2431 15.1756 26.7431 13.6534 26.7443 12.0884C26.7453 10.7205 26.3651 9.38046 25.6479 8.2241C24.9306 7.06774 23.9059 6.14262 22.6928 5.55638ZM22.9561 15.0397C22.9788 15.0627 22.9968 15.09 23.009 15.1201C23.0213 15.1502 23.0276 15.1825 23.0276 15.2151C23.0276 15.2477 23.0213 15.28 23.009 15.3101C22.9968 15.3402 22.9788 15.3675 22.9561 15.3905C22.9343 15.4149 22.9077 15.4344 22.878 15.4477C22.8484 15.4611 22.8163 15.4679 22.7839 15.4679C22.7515 15.4683 22.7193 15.4616 22.6896 15.4482C22.6599 15.4349 22.6334 15.4152 22.6117 15.3905L20.6164 13.3628L19.6035 19.2499L18.6362 13.3628L16.6509 15.3854C16.6287 15.4093 16.6021 15.4285 16.5725 15.4418C16.5429 15.455 16.5111 15.4622 16.4787 15.4628C16.4456 15.4626 16.4129 15.4556 16.3824 15.4423C16.352 15.4291 16.3245 15.4097 16.3015 15.3854C16.2581 15.3377 16.2339 15.275 16.2339 15.21C16.2339 15.1449 16.2581 15.0822 16.3015 15.0345L18.2564 13.0481L12.5792 12.0162L18.3526 11.0307L16.3268 8.96688C16.2834 8.91917 16.2593 8.85651 16.2593 8.79145C16.2593 8.72639 16.2834 8.66372 16.3268 8.61601C16.3733 8.56907 16.4361 8.54273 16.5015 8.54273C16.567 8.54273 16.6298 8.56907 16.6763 8.61601L18.702 10.6798L19.7149 4.89596L20.667 10.6747L22.6928 8.61086C22.7384 8.56434 22.8004 8.5382 22.865 8.5382C22.9295 8.5382 22.9915 8.56434 23.0371 8.61086C23.0828 8.65739 23.1085 8.72049 23.1085 8.78629C23.1085 8.85208 23.0828 8.91518 23.0371 8.96171L20.8797 11.0617L26.6633 12.0936L20.9911 13.0636L22.9561 15.0397Z" fill="#42B6E6"/>
<path d="M58.9544 4.83474C57.3728 4.80974 55.8431 5.40874 54.6851 6.50644V5.10819H51.8794V24.663H54.7458V17.7027C55.8979 18.7636 57.4016 19.3407 58.9544 19.3177C60.8395 19.3177 62.6474 18.5547 63.9804 17.1967C65.3134 15.8387 66.0622 13.9968 66.0622 12.0762C66.0622 10.1557 65.3134 8.31375 63.9804 6.95571C62.6474 5.59767 60.8395 4.83474 58.9544 4.83474ZM63.0717 12.0581C63.0717 14.6379 61.2992 16.5728 58.9544 16.5728C57.7791 16.5728 56.652 16.0971 55.8209 15.2505C54.9899 14.4038 54.523 13.2555 54.523 12.0581C54.523 10.8608 54.9899 9.71247 55.8209 8.86582C56.652 8.01916 57.7791 7.54352 58.9544 7.54352C61.2992 7.56415 63.0717 9.50416 63.0717 12.0788V12.0581Z" fill="#42B6E6"/>
<path d="M78.1086 6.50643C76.9506 5.40874 75.4209 4.80974 73.8393 4.83474C71.9542 4.83474 70.1463 5.59767 68.8133 6.95571C67.4803 8.31375 66.7314 10.1557 66.7314 12.0762C66.7314 13.9968 67.4803 15.8387 68.8133 17.1967C70.1463 18.5547 71.9542 19.3177 73.8393 19.3177C75.4207 19.3416 76.9501 18.7427 78.1086 17.646V19.0855H80.9143V5.10819H78.1086V6.50643ZM78.2555 12.0788C78.2555 13.2735 77.7907 14.4194 76.9629 15.2657C76.1352 16.1119 75.012 16.5893 73.8393 16.5934C71.4945 16.5934 69.722 14.6483 69.722 12.0788C69.722 9.50932 71.4945 7.56416 73.8393 7.56416C75.0089 7.57234 76.1277 8.05175 76.9513 8.89767C77.775 9.74359 78.2366 10.8873 78.2352 12.0788H78.2555Z" fill="#42B6E6"/>
<path d="M44.4046 4.78223C42.1458 4.78223 40.429 5.63356 39.3857 7.2485C38.3728 5.63356 36.656 4.78223 34.4226 4.78223C32.9861 4.78356 31.6028 5.33622 30.5484 6.3301V5.10728H27.7427V19.0743H30.6091V11.2678C30.5917 10.7866 30.6711 10.3068 30.8426 9.85805C31.014 9.40928 31.2737 9.00098 31.6058 8.6583C31.9379 8.31563 32.3353 8.04583 32.7735 7.86549C33.2118 7.68515 33.6817 7.59809 34.1542 7.60968C37.2283 7.60968 37.4663 10.1895 37.4663 11.0047V19.0846H40.3328V11.2678C40.3131 10.786 40.391 10.3052 40.5616 9.85544C40.7322 9.40563 40.9919 8.99643 41.3244 8.65328C41.657 8.31013 42.0553 8.04038 42.4946 7.86084C42.9339 7.6813 43.4047 7.59581 43.8779 7.60968C46.9165 7.60968 47.1646 10.1895 47.1646 11.0047V19.0846H50.0007V10.1018C50.0058 6.8151 47.0988 4.78223 44.4046 4.78223Z" fill="#42B6E6"/>
<path d="M88.6824 10.6445C86.1148 10.3917 85.6134 9.88089 85.6134 9.09664C85.6134 8.06472 86.7022 7.41461 88.4545 7.41461C89.8121 7.45077 91.1363 7.85121 92.2934 8.57551L92.6428 8.83866L93.9139 6.51685L93.6303 6.31562C92.0114 5.31125 90.1472 4.79263 88.252 4.81934C84.8892 4.81934 82.7216 6.522 82.7216 9.15338C82.7216 10.5671 83.3952 12.987 87.9025 13.312C90.8601 13.5287 91.2602 14.282 91.2602 14.994C91.2602 16.4903 89.2699 16.7173 88.0848 16.7173C86.5612 16.7844 85.0612 16.3163 83.8358 15.3913L83.5015 15.1282L82.3418 16.9753L82.1646 17.29L82.4532 17.5067C83.2331 18.0743 84.8537 19.2662 88.1861 19.2662C91.7312 19.2662 94.1469 17.4552 94.1469 14.7567C94.1469 12.3884 92.2883 10.9954 88.6824 10.6445Z" fill="#42B6E6"/>
</svg>
