<svg width="16" height="16" viewBox="0 0 16 16" fill="none" xmlns="http://www.w3.org/2000/svg">
<path fill-rule="evenodd" clip-rule="evenodd" d="M7.1997 0.630637C7.2547 0.447722 7.36388 0.287958 7.51138 0.174551C7.65888 0.061144 7.83701 0 8.01991 0C8.2028 0 8.38094 0.061144 8.52844 0.174551C8.67593 0.287958 8.78511 0.447722 8.84012 0.630637L10.3213 5.40723H15.0992C15.2886 5.39972 15.4752 5.45745 15.6304 5.5716C15.7856 5.68575 15.9009 5.85005 15.9587 6.03939C16.0165 6.22872 16.0136 6.43269 15.9504 6.62012C15.8872 6.80756 15.7673 6.96815 15.6089 7.07736L11.7308 10.0252L13.2119 14.8101C13.2705 14.9924 13.272 15.1895 13.2161 15.3727C13.1603 15.5559 13.0501 15.7156 12.9015 15.8285C12.753 15.9413 12.574 16.0014 12.3906 16C12.2072 15.9986 12.029 15.9357 11.8821 15.8205L7.99602 12.8393L4.11793 15.7955C3.97101 15.9106 3.79284 15.9735 3.60943 15.9749C3.42602 15.9763 3.24698 15.9162 3.09845 15.8034C2.94993 15.6905 2.8397 15.5309 2.78386 15.3476C2.72802 15.1644 2.72949 14.9673 2.78807 14.785L4.26923 10.0001L0.391139 7.05231C0.232737 6.9431 0.112786 6.78251 0.049613 6.59507C-0.0135602 6.40764 -0.0164815 6.20367 0.0412955 6.01433C0.0990724 5.825 0.21437 5.6607 0.369573 5.54655C0.524776 5.43239 0.711349 5.37466 0.900785 5.38217H5.67872L7.1997 0.630637Z" fill="#FF5F5F"/>
</svg>
