<svg width="29" height="26" viewBox="0 0 29 26" fill="none" xmlns="http://www.w3.org/2000/svg">
<g filter="url(#filter0_d_23_1957)">
<path d="M7.55938 5.81507L5.06055 9.46973L5.64422 9.85852L8.14306 6.20386L7.55938 5.81507Z" fill="#040000"/>
<path d="M8.43906 6.41107L5.93799 10.064L6.52138 10.4531L9.02245 6.80021L8.43906 6.41107Z" fill="#040000"/>
<path d="M5.65803 16.1382L5.07422 16.5269L7.55986 20.1644L8.14367 19.7757L5.65803 16.1382Z" fill="#040000"/>
<path d="M6.54427 15.5455L5.96045 15.9341L7.11693 17.6268L7.70074 17.2382L6.54427 15.5455Z" fill="#040000"/>
<path d="M8.43771 19.5919L9.00984 19.201L7.86558 17.5068L7.29346 17.8978L8.43771 19.5919Z" fill="#040000"/>
<path d="M14.3352 24.9783C21.0436 24.9783 26.4819 19.6106 26.4819 12.9891C26.4819 6.36772 21.0436 1 14.3352 1C7.62674 1 2.18848 6.36772 2.18848 12.9891C2.18848 19.6106 7.62674 24.9783 14.3352 24.9783Z" fill="white"/>
<path d="M7.55938 5.81507L5.06055 9.46973L5.64422 9.85852L8.14306 6.20386L7.55938 5.81507Z" fill="#040000"/>
<path d="M8.43955 6.41107L5.93848 10.064L6.52187 10.4531L9.02294 6.80021L8.43955 6.41107Z" fill="#040000"/>
<path d="M5.65804 16.1377L5.07422 16.5264L7.55985 20.1639L8.14367 19.7752L5.65804 16.1377Z" fill="#040000"/>
<path d="M6.54427 15.5455L5.96045 15.9341L7.11693 17.6268L7.70074 17.2382L6.54427 15.5455Z" fill="#040000"/>
<path d="M8.43771 19.5919L9.00984 19.201L7.86558 17.5068L7.29346 17.8978L8.43771 19.5919Z" fill="#040000"/>
<path d="M18.912 12.5981C19.132 15.0089 17.3276 17.1374 14.8851 17.3546C12.4425 17.5718 10.2861 15.7908 10.066 13.38C9.84597 10.9691 11.6504 8.8406 14.0929 8.6234C16.5355 8.40621 18.6919 10.1872 18.912 12.5981Z" fill="#C21828"/>
<path d="M10.7042 10.7305C10.0661 11.773 10.3962 13.1196 11.4524 13.7278C12.5086 14.3576 13.8729 14.0318 14.4891 12.9893C15.1272 11.9468 16.4915 11.621 17.5258 12.2508C18.582 12.8807 18.9121 14.2273 18.2739 15.2481C16.9976 17.3115 14.269 17.9848 12.1786 16.725C10.1101 15.487 9.42796 12.7938 10.7042 10.7305Z" fill="#003E7F"/>
<path d="M6.83105 10.6433L7.42519 11.0342L9.91174 7.38534L9.33961 7.01611L6.83105 10.6433Z" fill="#040000"/>
<path d="M21.5999 14.9534L20.4424 16.6455L21.026 17.0344L22.1835 15.3423L21.5999 14.9534Z" fill="#040000"/>
<path d="M20.2549 16.9122L19.1001 18.606L19.6843 18.994L20.8391 17.3003L20.2549 16.9122Z" fill="#040000"/>
<path d="M22.4786 15.5478L21.3203 17.2393L21.9037 17.6285L23.062 15.937L22.4786 15.5478Z" fill="#040000"/>
<path d="M19.9902 19.201L20.5624 19.5919L21.7066 17.8978L21.1345 17.5068L19.9902 19.201Z" fill="#040000"/>
<path d="M23.3566 16.1431L22.2012 17.8364L22.7852 18.2247L23.9406 16.5313L23.3566 16.1431Z" fill="#040000"/>
<path d="M22.0151 18.1023L20.8613 19.7969L21.4458 20.1846L22.5996 18.49L22.0151 18.1023Z" fill="#040000"/>
<path d="M22.4768 10.448L23.0489 10.0571L20.5624 6.4082L19.9902 6.79915L22.4768 10.448Z" fill="#040000"/>
<path d="M21.4623 5.81593L20.8789 6.20508L22.037 7.89657L22.6204 7.50743L21.4623 5.81593Z" fill="#040000"/>
<path d="M22.7844 7.77855L22.2012 8.16797L23.3601 9.85905L23.9434 9.46963L22.7844 7.77855Z" fill="#040000"/>
<path d="M19.6783 6.99262L19.0942 7.38086L20.2497 9.07419L20.8337 8.68595L19.6783 6.99262Z" fill="#040000"/>
<path d="M21.0179 8.94442L20.4341 9.33301L21.5906 11.0257L22.1744 10.6371L21.0179 8.94442Z" fill="#040000"/>
<path d="M7.41187 14.9541L6.82812 15.3428L9.31376 18.9799L9.89751 18.5912L7.41187 14.9541Z" fill="#040000"/>
</g>
<defs>
<filter id="filter0_d_23_1957" x="0" y="0" width="29" height="26" filterUnits="userSpaceOnUse" color-interpolation-filters="sRGB">
<feFlood flood-opacity="0" result="BackgroundImageFix"/>
<feColorMatrix in="SourceAlpha" type="matrix" values="0 0 0 0 0 0 0 0 0 0 0 0 0 0 0 0 0 0 127 0" result="hardAlpha"/>
<feOffset/>
<feGaussianBlur stdDeviation="0.5"/>
<feColorMatrix type="matrix" values="0 0 0 0 0 0 0 0 0 0 0 0 0 0 0 0 0 0 0.15 0"/>
<feBlend mode="normal" in2="BackgroundImageFix" result="effect1_dropShadow_23_1957"/>
<feBlend mode="normal" in="SourceGraphic" in2="effect1_dropShadow_23_1957" result="shape"/>
</filter>
</defs>
</svg>
