<svg width="12" height="17" viewBox="0 0 12 17" fill="none" xmlns="http://www.w3.org/2000/svg">
<path d="M5.97993 0C7.6388 0 9.05686 0.578638 10.2341 1.73592C11.4114 2.89319 12 4.29656 12 5.94601C12 6.77074 11.7926 7.72183 11.3779 8.7993C10.9632 9.87676 10.4615 10.8744 9.87291 11.7923C9.28428 12.7101 8.69565 13.5747 8.10702 14.3862C7.51839 15.1976 7.02341 15.8427 6.62207 16.3216L5.97993 17C5.8194 16.8404 5.60535 16.6009 5.33779 16.2817C5.07023 15.9624 4.59532 15.3439 3.91304 14.4261C3.23077 13.5082 2.62207 12.617 2.08696 11.7523C1.55184 10.8877 1.07023 9.91002 0.64214 8.81925C0.214047 7.72848 0 6.77074 0 5.94601C0 4.29656 0.58194 2.89319 1.74582 1.73592C2.9097 0.578638 4.32107 0 5.97993 0ZM5.97993 8.06103C6.56856 8.06103 7.07692 7.85485 7.50502 7.44249C7.93311 7.03013 8.14716 6.5313 8.14716 5.94601C8.14716 5.36072 7.93311 4.86189 7.50502 4.44953C7.07692 4.03717 6.56856 3.83099 5.97993 3.83099C5.3913 3.83099 4.88963 4.03717 4.47492 4.44953C4.0602 4.86189 3.85284 5.36072 3.85284 5.94601C3.85284 6.5313 4.0602 7.03013 4.47492 7.44249C4.88963 7.85485 5.3913 8.06103 5.97993 8.06103Z" fill="#42B6E6"/>
</svg>
