<svg width="187" height="31" viewBox="0 0 187 31" fill="none" xmlns="http://www.w3.org/2000/svg">
<path d="M150.664 7.17285H148.722V23.8532H150.664V7.17285Z" fill="#DDDDDD"/>
<path d="M138.671 9.30669L137.932 10.3962V7.15355H135.984V23.8339H137.932V14.8841C137.932 12.5753 138.823 10.6621 140.383 9.63743C141.943 8.61275 143.719 8.56086 145.679 9.33262L146.176 7.26379C143.095 6.14831 140.313 6.90063 138.671 9.30669Z" fill="#DDDDDD"/>
<path d="M149.696 0C149.404 0 149.118 0.0882439 148.876 0.253572C148.633 0.4189 148.443 0.653876 148.332 0.928806C148.22 1.20374 148.191 1.50627 148.248 1.79814C148.305 2.09 148.445 2.35809 148.652 2.56851C148.858 2.77893 149.121 2.92224 149.408 2.9803C149.694 3.03835 149.991 3.00856 150.261 2.89468C150.531 2.7808 150.762 2.58794 150.924 2.34051C151.086 2.09308 151.173 1.80219 151.173 1.50461C151.173 1.10556 151.017 0.72285 150.74 0.440683C150.463 0.158515 150.088 0 149.696 0Z" fill="#DDDDDD"/>
<path d="M162.472 6.77697C161.344 6.75725 160.226 7.00611 159.208 7.50374C158.19 8.00136 157.301 8.73403 156.61 9.6435L155.878 10.6358V7.17258H153.93V30.9998H155.878V20.4676L156.61 21.4533C157.299 22.3647 158.189 23.0992 159.207 23.5981C160.225 24.0969 161.343 24.3463 162.472 24.3263C167.336 24.3263 170.869 20.6362 170.869 15.5516C170.869 10.4671 167.31 6.77697 162.472 6.77697ZM162.275 22.5364C158.698 22.5364 156.005 19.5337 156.005 15.5516C156.005 11.5696 158.698 8.57342 162.275 8.57342C166.158 8.57342 168.978 11.5113 168.978 15.5516C168.978 19.592 166.196 22.5364 162.25 22.5364H162.275Z" fill="#DDDDDD"/>
<path d="M179.125 14.5532C177.031 14.177 174.134 13.7295 174.071 11.4597C174.001 9.30005 176.496 8.30132 179.087 8.33374C180.026 8.26804 180.968 8.39238 181.86 8.69959C182.751 9.00681 183.574 9.49081 184.281 10.1237L185.287 9.02119C183.59 7.47009 181.365 6.65761 179.087 6.75779C175.719 6.75779 172.447 8.16511 172.486 11.4986C172.524 14.8321 175.719 15.513 178.953 16.0383C181.684 16.4793 184.447 16.9657 184.377 19.4042C184.281 22.0762 181.194 22.6469 179.189 22.6469C176.967 22.6469 174.472 21.7909 173.09 19.7609L171.875 20.8634C173.326 23.1268 176.222 24.2618 179.157 24.2618C182.091 24.2618 185.898 23.2825 186.026 19.5275C186.166 15.5844 182.091 15.0655 179.125 14.5532Z" fill="#DDDDDD"/>
<path d="M129.46 22.2124C127.104 22.2124 125.697 20.617 125.697 17.945V9.01468H132.903V7.18581H125.697V1.6084H123.788V7.18581H119.968V9.01468H123.788V18.4509C123.788 22.0438 125.697 24.0218 129.23 24.0218C130.808 23.9485 132.342 23.4664 133.686 22.621L132.846 21.2136C131.819 21.8354 130.654 22.1792 129.46 22.2124Z" fill="#DDDDDD"/>
<path d="M14.0553 18.6517H13.6415C12.926 19.6246 11.928 20.3434 10.7891 20.7062C9.6502 21.0691 8.42809 21.0576 7.29595 20.6734C6.16381 20.2892 5.17905 19.5518 4.48121 18.5656C3.78338 17.5794 3.40785 16.3945 3.40785 15.1788C3.40785 13.9631 3.78338 12.7782 4.48121 11.792C5.17905 10.8058 6.16381 10.0684 7.29595 9.68419C8.42809 9.29998 9.6502 9.2885 10.7891 9.65135C11.928 10.0142 12.926 10.733 13.6415 11.7059H14.0426C14.407 10.625 14.94 9.61111 15.6213 8.70317C14.7686 7.81882 13.7525 7.11534 12.6315 6.63335C11.5104 6.15136 10.3068 5.90042 9.09006 5.89502C7.58693 5.89933 6.10817 6.28227 4.78545 7.00973C3.46274 7.73719 2.33713 8.7866 1.50884 10.0645C0.680555 11.3424 0.175299 12.8092 0.0380702 14.3342C-0.0991588 15.8591 0.135899 17.395 0.722305 18.8051C1.30871 20.2151 2.22827 21.4556 3.3991 22.4159C4.56993 23.3763 5.9557 24.0268 7.433 24.3095C8.91031 24.5921 10.4333 24.4982 11.8664 24.0361C13.2994 23.5741 14.5981 22.7581 15.6468 21.6609C14.9638 20.7496 14.4267 19.734 14.0553 18.6517Z" fill="#DDDDDD"/>
<path d="M28.5249 6.98451C26.7804 6.14148 24.8144 5.89843 22.9227 6.29193C21.0309 6.68544 19.3158 7.6942 18.0353 9.16645C16.7548 10.6387 15.9783 12.4948 15.8225 14.4554C15.6668 16.4161 16.1402 18.3752 17.1716 20.0381C18.203 21.701 19.7366 22.9777 21.5416 23.676C23.3466 24.3743 25.3254 24.4566 27.1802 23.9103C29.0351 23.3641 30.6656 22.2189 31.8266 20.6472C32.9875 19.0754 33.616 17.162 33.6175 15.195C33.6188 13.4756 33.1409 11.7912 32.2393 10.3377C31.3378 8.88421 30.0497 7.72138 28.5249 6.98451ZM28.8559 18.9046C28.8844 18.9335 28.907 18.9679 28.9224 19.0057C28.9378 19.0436 28.9458 19.0841 28.9458 19.1251C28.9458 19.1661 28.9378 19.2066 28.9224 19.2445C28.907 19.2823 28.8844 19.3167 28.8559 19.3456C28.8285 19.3763 28.795 19.4007 28.7578 19.4175C28.7205 19.4343 28.6802 19.4429 28.6395 19.4429C28.5987 19.4433 28.5583 19.4349 28.5209 19.4181C28.4836 19.4013 28.4502 19.3766 28.423 19.3456L25.915 16.7969L24.6418 24.1967L23.426 16.7969L20.9306 19.3391C20.9027 19.3692 20.8692 19.3933 20.832 19.41C20.7948 19.4267 20.7548 19.4357 20.7142 19.4364C20.6725 19.4362 20.6314 19.4274 20.5931 19.4107C20.5548 19.394 20.5203 19.3697 20.4914 19.3391C20.4368 19.2792 20.4064 19.2004 20.4064 19.1186C20.4064 19.0368 20.4368 18.9581 20.4914 18.8981L22.9485 16.4013L15.8126 15.1042L23.0695 13.8655L20.5232 11.2713C20.4686 11.2114 20.4383 11.1326 20.4383 11.0508C20.4383 10.9691 20.4686 10.8903 20.5232 10.8303C20.5816 10.7713 20.6605 10.7382 20.7428 10.7382C20.8251 10.7382 20.904 10.7713 20.9624 10.8303L23.5087 13.4245L24.7819 6.15438L25.9786 13.418L28.5249 10.8238C28.5823 10.7654 28.6602 10.7325 28.7413 10.7325C28.8225 10.7325 28.9004 10.7654 28.9578 10.8238C29.0152 10.8823 29.0474 10.9616 29.0474 11.0443C29.0474 11.1271 29.0152 11.2064 28.9578 11.2648L26.246 13.9044L33.5156 15.2015L26.386 16.4207L28.8559 18.9046Z" fill="#DDDDDD"/>
<path d="M74.1034 6.07663C72.1154 6.04521 70.1926 6.79813 68.7371 8.17788V6.42035H65.2104V30.9998H68.8134V22.2511C70.2615 23.5846 72.1516 24.3099 74.1034 24.281C76.4729 24.281 78.7454 23.322 80.4209 21.615C82.0964 19.908 83.0376 17.5929 83.0376 15.1788C83.0376 12.7648 82.0964 10.4496 80.4209 8.7426C78.7454 7.0356 76.4729 6.07663 74.1034 6.07663ZM79.2787 15.1561C79.2787 18.3988 77.0507 20.8308 74.1034 20.8308C72.6261 20.8308 71.2094 20.233 70.1648 19.1687C69.1202 18.1045 68.5333 16.6611 68.5333 15.1561C68.5333 13.6511 69.1202 12.2077 70.1648 11.1435C71.2094 10.0793 72.6261 9.48144 74.1034 9.48144C77.0507 9.50738 79.2787 11.9459 79.2787 15.1821V15.1561Z" fill="#DDDDDD"/>
<path d="M98.1785 8.17788C96.723 6.79812 94.8001 6.04521 92.8122 6.07663C90.4427 6.07663 88.1702 7.0356 86.4947 8.74259C84.8192 10.4496 83.8779 12.7648 83.8779 15.1788C83.8779 17.5929 84.8192 19.908 86.4947 21.615C88.1702 23.322 90.4427 24.281 92.8122 24.281C94.7999 24.3111 96.7223 23.5583 98.1785 22.1798V23.9892H101.705V6.42035H98.1785V8.17788ZM98.3631 15.1821C98.3631 16.6837 97.7789 18.1242 96.7385 19.1878C95.698 20.2515 94.2862 20.8516 92.8122 20.8568C89.8649 20.8568 87.6369 18.4118 87.6369 15.1821C87.6369 11.9524 89.8649 9.50739 92.8122 9.50739C94.2823 9.51767 95.6886 10.1203 96.7239 11.1835C97.7592 12.2468 98.3394 13.6844 98.3377 15.1821H98.3631Z" fill="#DDDDDD"/>
<path d="M55.8148 6.01172C52.9757 6.01172 50.8177 7.0818 49.5064 9.11172C48.2332 7.0818 46.0753 6.01172 43.268 6.01172C41.4623 6.0134 39.7236 6.70807 38.3982 7.95732V6.4203H34.8716V23.9762H38.4746V14.1638C38.4527 13.5589 38.5525 12.9559 38.768 12.3918C38.9834 11.8277 39.3099 11.3145 39.7273 10.8838C40.1447 10.453 40.6443 10.1139 41.1951 9.88724C41.746 9.66056 42.3366 9.55113 42.9306 9.5657C46.7946 9.5657 47.0938 12.8084 47.0938 13.8331V23.9891H50.6968V14.1638C50.6721 13.5582 50.77 12.9539 50.9844 12.3885C51.1988 11.8231 51.5252 11.3088 51.9432 10.8775C52.3612 10.4461 52.8619 10.1071 53.414 9.8814C53.9662 9.65572 54.5581 9.54827 55.1528 9.5657C58.9722 9.5657 59.2841 12.8084 59.2841 13.8331V23.9891H62.8489V12.6981C62.8553 8.56695 59.2014 6.01172 55.8148 6.01172Z" fill="#DDDDDD"/>
<path d="M111.47 13.3794C108.243 13.0616 107.612 12.4195 107.612 11.4338C107.612 10.1367 108.981 9.31952 111.184 9.31952C112.89 9.36497 114.554 9.86831 116.009 10.7787L116.448 11.1095L118.046 8.19107L117.689 7.93814C115.654 6.6757 113.311 6.02381 110.929 6.05739C106.702 6.05739 103.978 8.19755 103.978 11.5051C103.978 13.2821 104.824 16.3237 110.49 16.7323C114.207 17.0047 114.71 17.9515 114.71 18.8465C114.71 20.7273 112.208 21.0126 110.719 21.0126C108.804 21.0969 106.918 20.5085 105.378 19.3459L104.958 19.0151L103.5 21.3369L103.277 21.7325L103.64 22.0049C104.62 22.7183 106.658 24.2164 110.846 24.2164C115.302 24.2164 118.339 21.94 118.339 18.5482C118.339 15.5714 116.002 13.8204 111.47 13.3794Z" fill="#DDDDDD"/>
</svg>
