<svg width="18" height="18" viewBox="0 0 18 18" fill="none" xmlns="http://www.w3.org/2000/svg">
<path fill-rule="evenodd" clip-rule="evenodd" d="M8.1997 1.63064C8.2547 1.44772 8.36388 1.28796 8.51138 1.17455C8.65888 1.06114 8.83701 1 9.01991 1C9.2028 1 9.38094 1.06114 9.52844 1.17455C9.67593 1.28796 9.78511 1.44772 9.84012 1.63064L11.3213 6.40723H16.0992C16.2886 6.39972 16.4752 6.45745 16.6304 6.5716C16.7856 6.68575 16.9009 6.85005 16.9587 7.03939C17.0165 7.22872 17.0136 7.43269 16.9504 7.62012C16.8872 7.80756 16.7673 7.96815 16.6089 8.07736L12.7308 11.0252L14.2119 15.8101C14.2705 15.9924 14.272 16.1895 14.2161 16.3727C14.1603 16.5559 14.0501 16.7156 13.9015 16.8284C13.753 16.9413 13.574 17.0014 13.3906 17C13.2072 16.9986 13.029 16.9357 12.8821 16.8205L8.99602 13.8393L5.11793 16.7955C4.97101 16.9106 4.79284 16.9735 4.60943 16.9749C4.42602 16.9763 4.24698 16.9162 4.09845 16.8034C3.94993 16.6905 3.8397 16.5309 3.78386 16.3476C3.72802 16.1644 3.72949 15.9673 3.78807 15.785L5.26923 11.0001L1.39114 8.05231C1.23274 7.9431 1.11279 7.78251 1.04961 7.59507C0.98644 7.40764 0.983519 7.20367 1.0413 7.01433C1.09907 6.825 1.21437 6.6607 1.36957 6.54655C1.52478 6.43239 1.71135 6.37466 1.90079 6.38217H6.67872L8.1997 1.63064Z" stroke="#EBEBEB" stroke-width="1.4" stroke-linecap="round" stroke-linejoin="round"/>
</svg>
