<svg width="17" height="20" viewBox="0 0 17 20" fill="none" xmlns="http://www.w3.org/2000/svg">
<path d="M8.21661 9.63406C9.54016 9.63406 10.6862 9.15936 11.6227 8.22278C12.5591 7.28635 13.0338 6.14057 13.0338 4.81687C13.0338 3.49364 12.5591 2.34771 11.6225 1.41097C10.6859 0.474699 9.54001 0 8.21661 0C6.89291 0 5.74713 0.474699 4.8107 1.41113C3.87427 2.34756 3.39941 3.49349 3.39941 4.81687C3.39941 6.14057 3.87427 7.2865 4.81085 8.22293C5.74744 9.1592 6.89337 9.63406 8.21661 9.63406Z" fill="white"/>
<path d="M16.6457 15.3793C16.6187 14.9896 16.564 14.5645 16.4836 14.1156C16.4024 13.6633 16.2979 13.2358 16.1728 12.845C16.0435 12.4411 15.8678 12.0423 15.6505 11.66C15.425 11.2633 15.1601 10.9178 14.8628 10.6336C14.552 10.3362 14.1714 10.0971 13.7314 9.92267C13.2928 9.74918 12.8069 9.66129 12.287 9.66129C12.0828 9.66129 11.8854 9.74506 11.5041 9.99332C11.2694 10.1464 10.9949 10.3234 10.6885 10.5191C10.4265 10.6861 10.0716 10.8425 9.63318 10.9841C9.20547 11.1225 8.77121 11.1927 8.34259 11.1927C7.91397 11.1927 7.47986 11.1225 7.0517 10.9841C6.61377 10.8426 6.25885 10.6862 5.99716 10.5193C5.69366 10.3253 5.41901 10.1483 5.18082 9.99316C4.79996 9.7449 4.60236 9.66113 4.39819 9.66113C3.87817 9.66113 3.39233 9.74918 2.95395 9.92282C2.51419 10.0969 2.13348 10.336 1.82236 10.6337C1.52527 10.9181 1.26022 11.2635 1.035 11.66C0.817871 12.0423 0.64209 12.441 0.512695 12.8452C0.387726 13.2359 0.283203 13.6633 0.202026 14.1156C0.121613 14.5639 0.0669861 14.9892 0.039978 15.3798C0.0134277 15.7625 0 16.1597 0 16.5608C0 17.6048 0.331879 18.45 0.986328 19.0733C1.63269 19.6884 2.48795 20.0004 3.52798 20.0004H13.1581C14.1982 20.0004 15.0531 19.6886 15.6996 19.0733C16.3542 18.4505 16.6861 17.6051 16.6861 16.5607C16.6859 16.1577 16.6724 15.7602 16.6457 15.3793Z" fill="white"/>
</svg>
