<svg width="26" height="26" viewBox="0 0 26 26" fill="none" xmlns="http://www.w3.org/2000/svg">
<path d="M8.99499 3C8.23162 3.41247 7.52931 3.91768 6.90614 4.50262C5.90642 5.44153 5.13181 6.57079 4.63434 7.81456C4.13686 9.05833 3.92803 10.3878 4.02187 11.7138C4.11571 13.0398 4.51005 14.3315 5.1784 15.5023C5.84675 16.673 6.77365 17.6957 7.89686 18.5017C9.02007 19.3076 10.3136 19.8782 11.6906 20.1751C13.0676 20.472 14.4961 20.4883 15.8803 20.2229C17.2646 19.9575 18.5724 19.4166 19.7161 18.6365C20.8598 17.8564 21.8127 16.8552 22.5111 15.7" stroke="white" stroke-linecap="round" stroke-linejoin="round"/>
<path d="M6.90625 4.50293L8.48058 5.98388" stroke="white" stroke-linecap="round" stroke-linejoin="round"/>
<path d="M19.3394 16.1982L20.9137 17.6792" stroke="white" stroke-linecap="round" stroke-linejoin="round"/>
<path d="M13.3838 23.0005V20.3926" stroke="white" stroke-linecap="round" stroke-linejoin="round"/>
<path d="M10.4004 23H16.3674" stroke="white" stroke-linecap="round" stroke-linejoin="round"/>
<path d="M13.9062 18.3154C18.1475 18.3154 21.5857 15.0811 21.5857 11.0913C21.5857 7.10154 18.1475 3.86719 13.9062 3.86719C9.66483 3.86719 6.22656 7.10154 6.22656 11.0913C6.22656 15.0811 9.66483 18.3154 13.9062 18.3154Z" stroke="white" stroke-linecap="round" stroke-linejoin="round"/>
<path d="M19.3399 5.98298C18.6135 5.30016 17.7488 4.76133 16.7971 4.39839C15.8454 4.03544 14.8259 3.85574 13.7991 3.86992C13.4632 4.88769 13.4293 5.97246 13.7011 7.00703C13.973 8.04159 14.5402 8.98662 15.3414 9.73999C16.1427 10.4934 17.1476 11.0265 18.2475 11.2816C19.3474 11.5368 20.5006 11.5044 21.5824 11.188C21.5984 10.2233 21.4082 9.26542 21.023 8.37127C20.6378 7.47712 20.0654 6.66494 19.3399 5.98298V5.98298Z" stroke="white" stroke-linecap="round" stroke-linejoin="round"/>
<path d="M12.4699 12.4456C11.6688 11.6936 10.6646 11.1616 9.56575 10.907C8.46685 10.6524 7.31492 10.6848 6.23417 11.0007C6.21966 11.9647 6.41094 12.9216 6.79666 13.8148C7.18237 14.708 7.7547 15.5193 8.47973 16.2007C9.20477 16.882 10.0678 17.4196 11.0177 17.7816C11.9675 18.1436 12.985 18.3225 14.0097 18.3079C14.3443 17.2915 14.3778 16.2084 14.1064 15.1753C13.8351 14.1423 13.2693 13.1985 12.4699 12.4456V12.4456Z" stroke="white" stroke-linecap="round" stroke-linejoin="round"/>
<path d="M8.47656 16.1983L19.3393 5.9834" stroke="white" stroke-linecap="round" stroke-linejoin="round"/>
</svg>
